<svg width="13" height="17" viewBox="0 0 13 17" xmlns="http://www.w3.org/2000/svg">
    <path d="M11.281 17.125c.443 0 .82-.155 1.13-.465.309-.31.464-.686.464-1.129V1.72c0-.443-.155-.82-.465-1.13a1.537 1.537 0 00-1.129-.464H1.72C1.276.125.899.28.589.59.28.9.126 1.276.126 1.719V15.53c0 .443.155.82.465 1.13.31.309.686.464 1.129.464h9.562zm-.199-1.594H1.918c-.044 0-.089-.022-.133-.066-.044-.044-.066-.089-.066-.133V2.782h9.562v12.55c0 .044-.022.089-.066.133-.044.044-.089.066-.133.066zM6.5 10.086a2.24 2.24 0 001.644-.68 2.24 2.24 0 00.68-1.644 2.24 2.24 0 00-.68-1.644 2.24 2.24 0 00-1.644-.68 2.24 2.24 0 00-1.644.68 2.24 2.24 0 00-.68 1.644c0 .642.227 1.19.68 1.643a2.24 2.24 0 001.644.68zm3.021 2.789c.2 0 .366-.066.499-.2a.676.676 0 00.199-.497v-.532c0-.332-.1-.62-.3-.863-.198-.243-.453-.41-.763-.498l-1.03-.265a2.67 2.67 0 01-1.726.53 2.654 2.654 0 01-1.527-.53l-1.03.265c-.31.089-.564.255-.763.498-.2.244-.299.531-.299.863v.532c0 .199.067.365.2.498.132.133.298.199.498.199H9.52z"/>
</svg>
