<svg width="40" height="40" viewBox="0 0 40 40" xmlns="http://www.w3.org/2000/svg">
    <path d="M16.25 16.188c0-1.036-.84-1.875-1.875-1.875h-.938a3.75 3.75 0 00-3.75 3.75v2.812a3.75 3.75 0 003.75 3.75h.938c1.035 0 1.875-.84 1.875-1.875v-6.563zm10.313 8.437a3.75 3.75 0 003.75-3.75v-2.813a3.75 3.75 0 00-3.75-3.75h-.938c-1.035 0-1.875.84-1.875 1.876v6.562c0 1.035.84 1.875 1.875 1.875h.938zM20 4C11.632 4 5.268 10.963 5 19v.938c0 .517.42.937.938.937h.937c.518 0 .938-.42.938-.938V19C7.813 12.28 13.28 6.812 20 6.812S32.188 12.28 32.188 19h-.008c.005.142.008 9.71.008 9.71a2.477 2.477 0 01-2.478 2.477h-5.96a2.812 2.812 0 00-2.813-2.812h-1.875a2.812 2.812 0 100 5.625H29.71A5.29 5.29 0 0035 28.71V19c-.268-8.037-6.632-15-15-15z"/>
</svg>
