<svg width="15" height="18" viewBox="0 0 15 17" xmlns="http://www.w3.org/2000/svg">
    <path d="M13.344 17.125c.442 0 .819-.155 1.129-.465.31-.31.464-.686.464-1.129V8.094c0-.443-.154-.82-.464-1.13a1.537 1.537 0 00-1.13-.464h-1.062V4.94c0-.864-.216-1.666-.647-2.408A4.832 4.832 0 009.89.772 4.615 4.615 0 007.5.125c-.863 0-1.66.216-2.39.647a4.873 4.873 0 00-1.744 1.744 4.615 4.615 0 00-.647 2.39V6.5H1.656c-.442 0-.819.155-1.129.465-.31.31-.465.686-.465 1.129v7.437c0 .443.155.82.465 1.13.31.309.687.464 1.13.464h11.687zM10.687 6.5H4.312V4.906c0-.885.31-1.638.93-2.258.62-.62 1.373-.93 2.258-.93s1.638.31 2.258.93c.62.62.93 1.373.93 2.258V6.5zm2.657 9.031H1.656V8.094h11.688v7.437zM7.5 13.805a.901.901 0 00.664-.266.901.901 0 00.266-.664V10.75a.901.901 0 00-.266-.664.901.901 0 00-.664-.266.901.901 0 00-.664.266.901.901 0 00-.266.664v2.125c0 .266.089.487.266.664a.901.901 0 00.664.266z"/>
</svg>
