<svg width="40" height="40" viewBox="0 0 40 40" xmlns="http://www.w3.org/2000/svg">
    <g>
        <path d="M25.625 35.5c.52 0 .964-.182 1.328-.547.365-.365.547-.807.547-1.328v-7.5c0-.52-.182-.964-.547-1.328a1.808 1.808 0 00-1.328-.547h-.938v-2.813a5.771 5.771 0 00-.8-2.968 5.968 5.968 0 00-2.168-2.168 5.771 5.771 0 00-2.969-.801 5.771 5.771 0 00-2.969.8 5.968 5.968 0 00-2.168 2.169 5.771 5.771 0 00-.8 2.968v2.813h-.938c-.52 0-.964.182-1.328.547A1.808 1.808 0 0010 26.125v7.5c0 .52.182.963.547 1.328.364.365.807.547 1.328.547h13.75zm-4.063-11.25h-5.625v-2.813c0-.78.274-1.445.82-1.992a2.712 2.712 0 011.993-.82c.781 0 1.445.273 1.992.82.547.547.82 1.211.82 1.992v2.813z"/>
        <path d="M31 32a8.687 8.687 0 004.5-1.219A9.172 9.172 0 0038.78 27.5 8.687 8.687 0 0040 23a8.835 8.835 0 00-1.656-5.219C37.239 16.22 35.792 15.125 34 14.5c-.125-1.833-.865-3.375-2.219-4.625C30.427 8.625 28.833 8 27 8c-.458 0-.917.042-1.375.125a11.725 11.725 0 00-3.813-3A10.614 10.614 0 0017 4c-2.625 0-4.948.823-6.969 2.469-2.02 1.646-3.281 3.74-3.781 6.281-1.875.75-3.385 1.969-4.531 3.656A9.743 9.743 0 000 22c0 1.792.448 3.458 1.344 5A9.929 9.929 0 005 30.656 9.782 9.782 0 0010 32h21zm0-3H10a6.887 6.887 0 01-3.5-.938A6.875 6.875 0 013.937 25.5 6.887 6.887 0 013 22c0-1.75.573-3.281 1.719-4.594C5.865 16.094 7.292 15.312 9 15.062V15c0-1.458.354-2.802 1.062-4.031a7.783 7.783 0 012.907-2.907A7.932 7.932 0 0117 7c1.667 0 3.167.458 4.5 1.375 1.333.917 2.292 2.104 2.875 3.562C25.125 11.312 26 11 27 11c1.125 0 2.073.385 2.844 1.156C30.614 12.927 31 13.875 31 15c0 .708-.188 1.375-.563 2H31c1.667 0 3.083.583 4.25 1.75C36.417 19.917 37 21.333 37 23c0 1.667-.583 3.083-1.75 4.25C34.083 28.417 32.667 29 31 29z"/>
    </g>
</svg>
