<svg width="13" height="17" viewBox="0 0 13 17" xmlns="http://www.w3.org/2000/svg">
    <path d="M11.281 17.125c.443 0 .82-.155 1.13-.465.309-.31.464-.686.464-1.129V4.508c0-.443-.155-.82-.465-1.13L9.621.59A1.537 1.537 0 008.492.125H1.72C1.276.125.899.28.589.59.28.9.126 1.276.126 1.719V15.53c0 .443.155.82.465 1.13.31.309.686.464 1.129.464h9.562zm0-1.594H1.72V1.72H7.03v3.453c0 .221.078.41.233.564a.768.768 0 00.564.233h3.453v9.562zm-.133-11.156H8.625V1.852l2.523 2.523zM9.29 9.688c.11 0 .205-.04.282-.117a.384.384 0 00.116-.282v-.93a.384.384 0 00-.116-.282.384.384 0 00-.282-.116H3.711a.384.384 0 00-.282.116.384.384 0 00-.117.282v.93c0 .11.04.205.117.282a.384.384 0 00.282.117h5.578zm0 2.789c.11 0 .205-.04.282-.117a.384.384 0 00.116-.282v-.93a.384.384 0 00-.116-.282.384.384 0 00-.282-.116H3.711a.384.384 0 00-.282.116.384.384 0 00-.117.282v.93c0 .11.04.205.117.282a.384.384 0 00.282.117h5.578z"/>
</svg>
