<svg width="40" height="40" viewBox="0 0 40 40" xmlns="http://www.w3.org/2000/svg">
    <path d="M20 34c2.375 0 4.552-.583 6.531-1.75a13.134 13.134 0 004.719-4.719C32.417 25.552 33 23.375 33 21c0-2.75-.792-5.25-2.375-7.5l1.437-1.438a.676.676 0 00.188-.5.914.914 0 00-.188-.562L31 9.937a.914.914 0 00-.563-.187.676.676 0 00-.5.187l-1.312 1.313c-2.042-1.792-4.417-2.854-7.125-3.188V5h1.75a.723.723 0 00.531-.219A.723.723 0 0024 4.25v-1.5a.723.723 0 00-.219-.531A.723.723 0 0023.25 2h-6.5a.723.723 0 00-.531.219.723.723 0 00-.219.531v1.5c0 .208.073.385.219.531A.723.723 0 0016.75 5h1.75v3.062c-2.125.25-4.063.98-5.813 2.188a13.15 13.15 0 00-4.156 4.656A12.659 12.659 0 007 21c0 2.375.583 4.552 1.75 6.531a13.134 13.134 0 004.719 4.719C15.448 33.417 17.625 34 20 34zm0-3a9.782 9.782 0 01-5-1.344A9.929 9.929 0 0111.344 26 9.782 9.782 0 0110 21c0-1.792.448-3.458 1.344-5A9.929 9.929 0 0115 12.344 9.782 9.782 0 0120 11c1.792 0 3.458.448 5 1.344A9.929 9.929 0 0128.656 16 9.782 9.782 0 0130 21a9.782 9.782 0 01-1.344 5A9.929 9.929 0 0125 29.656 9.782 9.782 0 0120 31zm.75-7a.723.723 0 00.531-.219.723.723 0 00.219-.531v-8.5a.723.723 0 00-.219-.531.723.723 0 00-.531-.219h-1.5a.723.723 0 00-.531.219.723.723 0 00-.219.531v8.5c0 .208.073.385.219.531a.723.723 0 00.531.219h1.5z"/>
</svg>
