<svg width="20" height="16" viewBox="0 0 20 16" xmlns="http://www.w3.org/2000/svg">
    <path d="M17.531 15.062c.443 0 .82-.154 1.13-.464.309-.31.464-.687.464-1.13V1.782c0-.442-.155-.819-.465-1.129a1.537 1.537 0 00-1.129-.464H1.594c-.443 0-.82.154-1.13.464C.155.962 0 1.34 0 1.782v11.687c0 .442.155.819.465 1.129.31.31.686.464 1.129.464H17.53zm0-11.687H1.594V1.98c0-.044.022-.088.066-.132.044-.045.089-.067.133-.067h15.539c.044 0 .089.022.133.067.044.044.066.088.066.132v1.395zm-.199 10.094H1.793c-.044 0-.089-.022-.133-.067-.044-.044-.066-.088-.066-.132V7.625H17.53v5.645c0 .044-.022.088-.066.132-.044.045-.089.067-.133.067zM5.977 11.875c.11 0 .204-.039.282-.116a.384.384 0 00.116-.282v-1.329a.384.384 0 00-.116-.282.384.384 0 00-.282-.116H3.586a.384.384 0 00-.282.116.384.384 0 00-.117.282v1.329c0 .11.04.204.117.282a.384.384 0 00.282.116h2.39zm6.375 0c.11 0 .204-.039.282-.116a.384.384 0 00.116-.282v-1.329a.384.384 0 00-.116-.282.384.384 0 00-.282-.116H7.836a.384.384 0 00-.282.116.384.384 0 00-.117.282v1.329c0 .11.04.204.117.282a.384.384 0 00.282.116h4.516z"/>
</svg>
