<svg version="1.1" id="Layer_1" xmlns="http://www.w3.org/2000/svg" x="0" y="0" viewBox="0 0 205 96"
     xml:space="preserve">
    <style>.st2{fill:#fff}</style>
    <g>
        <g>
            <g>
                <g transform="translate(113)">
                    <g>
                    <path d="M6.1 43.3h0c.3-.3-.6.7-.8 1-.4.5-.8 1.1-1.1 1.7-2.3 4.1-2.9 9.1-.5 15.2 1.8 4.7 7.8 9.4 16.8 14.1 6.3 3.3 12.1 5.6 20.9 8.9 12.4 4.6 19.1 5.8 30.2 4.3 8-1.1 12.9-3.7 15.9-9.4 3.8-7.4 3.8-19.8-.7-38.6C82.4 21.7 77 10.6 70.7 5.3c-4.8-4-9.6-4.5-16.2-2.9-9.1 2.3-18 8.4-28.7 18.7-1.3 1.3-2.8 2.8-4.3 4.4-1 1.1-2 2.2-3.1 3.3-2.9 3.2-5.8 6.6-8.6 10-1 1.2-1.9 2.3-2.7 3.3-.3.3-.5.7-.7.9-.2.1-.3.2-.3.3h0zm-.8-.6S16.2 29 25.1 20.4s18.5-16.3 29.1-19S78.1-.7 87.9 40.1 85 87.6 71.8 89.4s-21.3-.8-30.7-4.3-34-12.6-38.3-23.6 1.4-17.4 2.5-18.8h0z"
                          fill="#fd6a35" stroke="#fc6a36"/>
                        <linearGradient id="gradient" gradientUnits="userSpaceOnUse" x1="-20" y1="1" x2="25" y2="-10">
                        <stop offset="0" stop-color="#fff"/>
                            <stop offset="0" stop-color="#fb9068"/>
                            <stop offset="0" stop-color="#fb9874"/>
                            <stop offset=".585" stop-color="#fc7b4c"/>
                            <stop offset="1" stop-color="#fc6b36"/></linearGradient>
                        <path d="M7.2 33.4s13.9-10.7 24.5-16.9S53.6 5.1 64.5 5.1 88.2 8.9 87.8 51c-.4 42.1-14.3 45.5-27.5 44s-20.4-6-28.7-11.7S1.8 62.9.2 51.1s5.6-16.6 7-17.7z"
                              fill="url(#gradient)"/></g>
                    <g transform="translate(20.9 34)">
                    <path class="st2" d="M49.1 30v-6h4v-6h-4V0h-8.2L28.1 18.8V24h15v6h6zm-6-12h-7.8l7.8-12.3V18z"/>
                        <path class="st2"
                              d="M23.1 30v-5.5H11.3c7.7-5.6 11.8-10 11.8-15 0-5.9-5-9.4-11.3-9.4C7.7 0 3.3 1.5.4 4.8L4 9c2-2.1 4.6-3.4 8-3.4 2.4 0 4.8 1.3 4.8 3.9 0 3.6-3.5 6.7-15.6 15.6V30h21.9z"/>
                </g>
            </g>
                <path class="st2 firm"
                      d="M6 64V52h14v-6H6v-6h15v-6H0v30h6zm27 0V34h-6v30h6zm30.3 0l-6.7-11.4c3.2-.8 6.6-3.6 6.5-8.9.1-5.6-3.7-9.7-10-9.7H39v30h6V54h5.1L56 64h7.3zM45 48v-8h7.1c2.6 0 4.5 1.5 4.5 4s-1.9 4-4.5 4H45zm56 16V34h-8.5l-7.3 18.1L78 34h-9v30h6V43l8.8 21h2.8L95 43v21h6z"/>
        </g>
        </g>
    </g>
</svg>
