<svg width="24" height="24" viewBox="0 0 24 24" xmlns="http://www.w3.org/2000/svg">
    <path d="M12 22c1.801 0 3.468-.45 5-1.35A10.105 10.105 0 0020.65 17 9.694 9.694 0 0022 12c0-1.801-.45-3.468-1.35-5A10.105 10.105 0 0017 3.35 9.694 9.694 0 0012 2c-1.801 0-3.468.45-5 1.35A10.105 10.105 0 003.35 7 9.694 9.694 0 002 12c0 1.801.45 3.468 1.35 5A10.105 10.105 0 007 20.65 9.694 9.694 0 0012 22zm0-1.935a7.826 7.826 0 01-4.032-1.09 8.132 8.132 0 01-2.944-2.943A7.826 7.826 0 013.935 12c0-1.452.363-2.796 1.09-4.032a8.132 8.132 0 012.943-2.944A7.826 7.826 0 0112 3.935c1.452 0 2.796.363 4.032 1.09a8.132 8.132 0 012.944 2.943A7.826 7.826 0 0120.065 12a7.826 7.826 0 01-1.09 4.032 8.132 8.132 0 01-2.943 2.944A7.826 7.826 0 0112 20.065zm.645-2.904a.467.467 0 00.343-.14.467.467 0 00.141-.344V13.13h3.548a.467.467 0 00.343-.141.467.467 0 00.141-.343v-1.29a.467.467 0 00-.14-.343.467.467 0 00-.344-.141H13.13V7.323a.467.467 0 00-.141-.343.467.467 0 00-.343-.141h-1.29a.467.467 0 00-.343.14.467.467 0 00-.141.344v3.548H7.323a.467.467 0 00-.343.141.467.467 0 00-.141.343v1.29c0 .135.047.249.14.343a.467.467 0 00.344.141h3.548v3.548c0 .135.047.25.141.343a.467.467 0 00.343.141h1.29z"/>
</svg>
