<svg width="24" height="24" viewBox="0 0 24 24" xmlns="http://www.w3.org/2000/svg">
    <path d="M12 22c1.801 0 3.468-.45 5-1.35A10.105 10.105 0 0020.65 17 9.694 9.694 0 0022 12c0-1.801-.45-3.468-1.35-5A10.105 10.105 0 0017 3.35 9.694 9.694 0 0012 2c-1.801 0-3.468.45-5 1.35A10.105 10.105 0 003.35 7 9.694 9.694 0 002 12c0 1.801.45 3.468 1.35 5A10.105 10.105 0 007 20.65 9.694 9.694 0 0012 22zm0-1.935a7.826 7.826 0 01-4.032-1.09 8.132 8.132 0 01-2.944-2.943A7.826 7.826 0 013.935 12c0-1.452.363-2.796 1.09-4.032a8.132 8.132 0 012.943-2.944A7.826 7.826 0 0112 3.935c1.452 0 2.796.363 4.032 1.09a8.132 8.132 0 012.944 2.943A7.826 7.826 0 0120.065 12a7.826 7.826 0 01-1.09 4.032 8.132 8.132 0 01-2.943 2.944A7.826 7.826 0 0112 20.065zm.847-6.775a.424.424 0 00.302-.14.653.653 0 00.182-.303l.242-5.484c.026-.161-.007-.29-.101-.383a.518.518 0 00-.383-.141H10.91a.518.518 0 00-.383.14c-.094.095-.127.223-.1.384l.241 5.484a.653.653 0 00.182.302.424.424 0 00.302.141h1.694zM12 17.565c.457 0 .853-.168 1.19-.505.336-.336.504-.732.504-1.189 0-.457-.168-.854-.504-1.19a1.627 1.627 0 00-1.19-.504c-.457 0-.853.168-1.19.504a1.627 1.627 0 00-.504 1.19c0 .457.168.853.504 1.19.337.336.733.504 1.19.504z"/>
</svg>
