<svg width="24" height="24" viewBox="0 0 24 24" xmlns="http://www.w3.org/2000/svg">
    <path d="M19.625 21.5c.52 0 .964-.182 1.328-.547.365-.364.547-.807.547-1.328V5.875c0-.52-.182-.964-.547-1.328A1.808 1.808 0 0019.625 4H17.75V1.969c0-.13-.046-.241-.137-.332a.452.452 0 00-.332-.137H15.72c-.13 0-.241.046-.332.137a.452.452 0 00-.137.332V4h-5V1.969c0-.13-.046-.241-.137-.332a.452.452 0 00-.332-.137H8.22c-.13 0-.241.046-.332.137a.452.452 0 00-.137.332V4H5.875c-.52 0-.964.182-1.328.547A1.808 1.808 0 004 5.875v13.75c0 .52.182.964.547 1.328.364.365.807.547 1.328.547h13.75zm-.234-1.875H6.109c-.052 0-.104-.026-.156-.078-.052-.052-.078-.104-.078-.156V7.75h13.75v11.64c0 .053-.026.105-.078.157-.052.052-.104.078-.156.078z"/>
</svg>
