<svg width="24" height="24" viewBox="0 0 24 24" xmlns="http://www.w3.org/2000/svg">
    <path d="M7.906 9a.723.723 0 00.531-.219.723.723 0 00.22-.531v-2.5a.723.723 0 00-.22-.531.723.723 0 00-.53-.219H4.75a.723.723 0 00-.531.219A.723.723 0 004 5.75v2.5c0 .208.073.385.219.531A.723.723 0 004.75 9h3.156zM19.25 9a.723.723 0 00.531-.219A.723.723 0 0020 8.25v-2.5a.723.723 0 00-.219-.531A.723.723 0 0019.25 5h-3.156a.723.723 0 00-.532.219.723.723 0 00-.218.531v2.5c0 .208.073.385.218.531a.723.723 0 00.532.219h3.156zm-5.656 0a.723.723 0 00.531-.219.723.723 0 00.219-.531v-2.5a.723.723 0 00-.219-.531.723.723 0 00-.531-.219h-3.188a.723.723 0 00-.531.219.723.723 0 00-.219.531v2.5c0 .208.073.385.219.531a.723.723 0 00.531.219h3.188zm0 5a.723.723 0 00.531-.219.723.723 0 00.219-.531v-2.5a.723.723 0 00-.219-.531.723.723 0 00-.531-.219h-3.188a.723.723 0 00-.531.219.723.723 0 00-.219.531v2.5c0 .208.073.385.219.531a.723.723 0 00.531.219h3.188zm-5.688 0a.723.723 0 00.531-.219.723.723 0 00.22-.531v-2.5a.723.723 0 00-.22-.531.723.723 0 00-.53-.219H4.75a.723.723 0 00-.531.219.723.723 0 00-.219.531v2.5c0 .208.073.385.219.531A.723.723 0 004.75 14h3.156zm11.344 0a.723.723 0 00.531-.219.723.723 0 00.219-.531v-2.5a.723.723 0 00-.219-.531.723.723 0 00-.531-.219h-3.156a.723.723 0 00-.532.219.723.723 0 00-.218.531v2.5c0 .208.073.385.218.531a.723.723 0 00.532.219h3.156zM7.906 19a.723.723 0 00.531-.219.723.723 0 00.22-.531v-2.5a.723.723 0 00-.22-.531.723.723 0 00-.53-.219H4.75a.723.723 0 00-.531.219.723.723 0 00-.219.531v2.5c0 .208.073.385.219.531A.723.723 0 004.75 19h3.156zm11.344 0a.723.723 0 00.531-.219.723.723 0 00.219-.531v-2.5a.723.723 0 00-.219-.531.723.723 0 00-.531-.219h-3.156a.723.723 0 00-.532.219.723.723 0 00-.218.531v2.5c0 .208.073.385.218.531a.723.723 0 00.532.219h3.156zm-5.656 0a.723.723 0 00.531-.219.723.723 0 00.219-.531v-2.5a.723.723 0 00-.219-.531.723.723 0 00-.531-.219h-3.188a.723.723 0 00-.531.219.723.723 0 00-.219.531v2.5c0 .208.073.385.219.531a.723.723 0 00.531.219h3.188z"/>
</svg>
