<svg width="24" height="24" viewBox="0 0 24 24" xmlns="http://www.w3.org/2000/svg">
    <path d="M12 2c1.801 0 3.468.45 5 1.35 1.532.901 2.749 2.118 3.65 3.65A9.694 9.694 0 0122 12c0 1.801-.45 3.468-1.35 5A10.105 10.105 0 0117 20.65 9.694 9.694 0 0112 22a9.694 9.694 0 01-5-1.35A10.105 10.105 0 013.35 17 9.694 9.694 0 012 12c0-1.801.45-3.468 1.35-5A10.105 10.105 0 017 3.35 9.694 9.694 0 0112 2zm0 12.177c-.457 0-.853.168-1.19.504a1.627 1.627 0 00-.504 1.19c0 .457.168.853.504 1.19.337.336.733.504 1.19.504.457 0 .853-.168 1.19-.505.336-.336.504-.732.504-1.189 0-.457-.168-.854-.504-1.19a1.627 1.627 0 00-1.19-.504zm1.089-7.338H10.91l-.092.005a.483.483 0 00-.29.136.383.383 0 00-.11.29l.008.093.242 5.484.027.08a.7.7 0 00.155.222c.07.07.145.115.223.133l.08.008h1.693l.08-.008a.462.462 0 00.222-.133.7.7 0 00.155-.223l.027-.08.242-5.483.008-.093a.383.383 0 00-.11-.29.483.483 0 00-.29-.136l-.092-.005z"/>
</svg>
