<svg width="24" height="24" viewBox="0 0 24 24" xmlns="http://www.w3.org/2000/svg">
    <path d="M22 21c.556 0 1.028-.188 1.417-.563.389-.374.583-.83.583-1.366V4.93c0-.536-.194-.992-.583-1.367A1.966 1.966 0 0022 3H2c-.556 0-1.028.188-1.417.563C.194 3.937 0 4.393 0 4.928V19.07c0 .536.194.992.583 1.366.39.375.861.563 1.417.563h20zm0-14.143H2V5.17c0-.054.028-.108.083-.161.056-.054.111-.08.167-.08h19.5c.056 0 .111.026.167.08.055.053.083.107.083.16v1.688zm-.25 12.214H2.25c-.056 0-.111-.026-.167-.08-.055-.053-.083-.107-.083-.16V12h20v6.83c0 .054-.028.108-.083.161-.056.054-.111.08-.167.08zM7.5 17.143a.491.491 0 00.5-.482v-1.607a.491.491 0 00-.5-.482h-3a.491.491 0 00-.5.482v1.607a.491.491 0 00.5.482h3zm8 0a.491.491 0 00.5-.482v-1.607a.491.491 0 00-.5-.482H9.833a.491.491 0 00-.5.482v1.607a.491.491 0 00.5.482H15.5z"/>
</svg>
