<svg width="24" height="24" viewBox="0 0 24 24" xmlns="http://www.w3.org/2000/svg">
    <path d="M12 22c1.801 0 3.468-.45 5-1.35A10.105 10.105 0 0020.65 17 9.694 9.694 0 0022 12c0-1.801-.45-3.468-1.35-5A10.105 10.105 0 0017 3.35 9.694 9.694 0 0012 2c-1.801 0-3.468.45-5 1.35A10.105 10.105 0 003.35 7 9.694 9.694 0 002 12c0 1.801.45 3.468 1.35 5A10.105 10.105 0 007 20.65 9.694 9.694 0 0012 22zm0-1.935a7.826 7.826 0 01-4.032-1.09 8.132 8.132 0 01-2.944-2.943A7.826 7.826 0 013.935 12c0-1.452.363-2.796 1.09-4.032a8.132 8.132 0 012.943-2.944A7.826 7.826 0 0112 3.935c1.452 0 2.796.363 4.032 1.09a8.132 8.132 0 012.944 2.943A7.826 7.826 0 0120.065 12a7.826 7.826 0 01-1.09 4.032 8.132 8.132 0 01-2.943 2.944A7.826 7.826 0 0112 20.065zm0-4.194a.501.501 0 00.363-.161l4.92-4.92a.501.501 0 00.16-.363.383.383 0 00-.16-.322l-.888-.928a.59.59 0 00-.363-.12.436.436 0 00-.322.12L12 12.887l-3.71-3.71a.436.436 0 00-.322-.12.59.59 0 00-.363.12l-.887.928a.383.383 0 00-.162.322c0 .135.054.256.162.363l4.96 4.92c.08.107.188.161.322.161z"/>
</svg>
