<svg width="24" height="24" viewBox="0 0 24 24" xmlns="http://www.w3.org/2000/svg">
    <path d="M12 2c1.801 0 3.468.45 5 1.35 1.532.901 2.749 2.118 3.65 3.65A9.694 9.694 0 0122 12c0 1.801-.45 3.468-1.35 5A10.105 10.105 0 0117 20.65 9.694 9.694 0 0112 22a9.694 9.694 0 01-5-1.35A10.105 10.105 0 013.35 17 9.694 9.694 0 012 12c0-1.801.45-3.468 1.35-5A10.105 10.105 0 017 3.35 9.694 9.694 0 0112 2zm0 18.065a7.826 7.826 0 004.032-1.09 8.132 8.132 0 002.944-2.943A7.826 7.826 0 0020.065 12a7.826 7.826 0 00-1.09-4.032 8.132 8.132 0 00-2.943-2.944A7.826 7.826 0 0012 3.935a7.826 7.826 0 00-4.032 1.09 8.132 8.132 0 00-2.944 2.943A7.826 7.826 0 003.935 12c0 1.452.363 2.796 1.09 4.032a8.132 8.132 0 002.943 2.944A7.826 7.826 0 0012 20.065zm4.315-10.283c0 .726-.216 1.344-.646 1.855-.235.259-.604.538-1.107.838l-.223.13c-.323.188-.538.336-.645.443-.189.135-.283.296-.283.484v.242a.467.467 0 01-.14.343.467.467 0 01-.344.141h-1.854a.467.467 0 01-.343-.141.467.467 0 01-.141-.343v-.363c0-.618.215-1.142.645-1.572.242-.242.645-.524 1.21-.847l.08-.04.316-.195c.239-.15.416-.274.531-.37a.888.888 0 00.282-.645c0-.323-.168-.591-.504-.807a2.05 2.05 0 00-1.129-.322c-.417 0-.773.094-1.068.282-.242.161-.538.47-.887.928a.602.602 0 01-.303.16.404.404 0 01-.343-.08L8.29 9.056a.442.442 0 01-.181-.322.65.65 0 01.06-.363c.511-.726 1.09-1.27 1.734-1.633.645-.363 1.425-.544 2.339-.544.645 0 1.29.16 1.935.483a4.193 4.193 0 011.553 1.29c.39.538.585 1.143.585 1.815zm-2.621 6.734c0 .457-.168.854-.504 1.19a1.627 1.627 0 01-1.19.504c-.457 0-.853-.168-1.19-.504a1.627 1.627 0 01-.504-1.19c0-.457.168-.853.504-1.19a1.627 1.627 0 011.19-.503c.457 0 .853.168 1.19.504.336.336.504.732.504 1.19z"/>
</svg>
