<svg width="24" height="24" viewBox="0 0 24 24" xmlns="http://www.w3.org/2000/svg">
    <path d="M12.5 14c.586 0 1.085-.194 1.495-.583.41-.39.616-.861.616-1.417s-.205-1.028-.616-1.417A2.095 2.095 0 0012.5 10c-.586 0-1.085.194-1.495.583-.41.39-.616.861-.616 1.417s.205 1.028.616 1.417c.41.389.909.583 1.495.583zm7.389 0c.586 0 1.085-.194 1.495-.583.41-.39.616-.861.616-1.417s-.205-1.028-.616-1.417A2.095 2.095 0 0019.89 10c-.587 0-1.085.194-1.495.583-.411.39-.616.861-.616 1.417s.205 1.028.616 1.417c.41.389.908.583 1.495.583zM5.11 14c.587 0 1.085-.194 1.495-.583.411-.39.616-.861.616-1.417s-.205-1.028-.616-1.417A2.095 2.095 0 005.111 10c-.586 0-1.085.194-1.495.583-.41.39-.616.861-.616 1.417s.205 1.028.616 1.417c.41.389.909.583 1.495.583z"/>
</svg>
