<svg width="24" height="24" viewBox="0 0 24 24" xmlns="http://www.w3.org/2000/svg">
    <path d="M8.844 16.406c.11 0 .199-.044.265-.133l.664-.63a.413.413 0 00.133-.3c0-.11-.044-.198-.133-.265l-2.689-2.59h11.455c.11 0 .205-.038.282-.116a.384.384 0 00.116-.282v-.93a.384.384 0 00-.116-.282.384.384 0 00-.282-.116H7.084l2.69-2.59a.316.316 0 00.132-.266c0-.11-.044-.21-.133-.299l-.664-.63a.316.316 0 00-.265-.133c-.11 0-.2.044-.266.133l-4.383 4.382a.316.316 0 00-.133.266c0 .11.045.2.133.266l4.383 4.382a.316.316 0 00.266.133z"/>
</svg>
