<svg width="24" height="33" viewBox="0 0 24 32" xmlns="http://www.w3.org/2000/svg">
    <path d="M21.125 32.125c.833 0 1.542-.292 2.125-.875a2.893 2.893 0 00.875-2.125v-26c0-.833-.292-1.542-.875-2.125a2.893 2.893 0 00-2.125-.875h-18C2.292.125 1.583.417 1 1a2.893 2.893 0 00-.875 2.125v26c0 .833.292 1.542.875 2.125a2.893 2.893 0 002.125.875h18zm-.375-3H3.5c-.083 0-.167-.042-.25-.125-.083-.083-.125-.167-.125-.25V5.125h18V28.75c0 .083-.042.167-.125.25-.083.083-.167.125-.25.125zm-8.625-10.25c1.208 0 2.24-.427 3.094-1.281.854-.854 1.281-1.886 1.281-3.094s-.427-2.24-1.281-3.094c-.854-.854-1.886-1.281-3.094-1.281s-2.24.427-3.094 1.281c-.854.854-1.281 1.886-1.281 3.094s.427 2.24 1.281 3.094c.854.854 1.886 1.281 3.094 1.281zm5.688 5.25c.375 0 .687-.125.937-.375s.375-.562.375-.937v-1c0-.625-.188-1.167-.563-1.625a2.809 2.809 0 00-1.437-.938l-1.938-.5c-.958.708-2.041 1.042-3.25 1-1.083-.042-2.041-.375-2.874-1l-1.938.5a2.809 2.809 0 00-1.438.938c-.375.458-.562 1-.562 1.625v1c0 .375.125.687.375.937s.563.375.938.375h11.375z"/>
</svg>
