<svg width="24" height="24" viewBox="0 0 24 24" xmlns="http://www.w3.org/2000/svg">
    <path d="M6.5 8a.487.487 0 00.36-.14A.487.487 0 007 7.5v-2a.487.487 0 00-.14-.36A.487.487 0 006.5 5h-2a.487.487 0 00-.36.14.487.487 0 00-.14.36v2c0 .146.047.266.14.36.094.093.214.14.36.14h2zm13-.375a.487.487 0 00.36-.14.487.487 0 00.14-.36v-1.25a.487.487 0 00-.14-.36.487.487 0 00-.36-.14h-11a.487.487 0 00-.36.14.487.487 0 00-.14.36v1.25c0 .146.047.266.14.36.094.093.214.14.36.14h11zM6.5 13a.487.487 0 00.36-.14.487.487 0 00.14-.36v-2a.487.487 0 00-.14-.36.487.487 0 00-.36-.14h-2a.487.487 0 00-.36.14.487.487 0 00-.14.36v2c0 .146.047.266.14.36.094.093.214.14.36.14h2zm13-.375a.487.487 0 00.36-.14.487.487 0 00.14-.36v-1.25a.487.487 0 00-.14-.36.487.487 0 00-.36-.14h-11a.487.487 0 00-.36.14.487.487 0 00-.14.36v1.25c0 .146.047.266.14.36.094.093.214.14.36.14h11zM6.5 18a.487.487 0 00.36-.14.487.487 0 00.14-.36v-2a.487.487 0 00-.14-.36.487.487 0 00-.36-.14h-2a.487.487 0 00-.36.14.487.487 0 00-.14.36v2c0 .146.047.266.14.36.094.093.214.14.36.14h2zm13-.375a.487.487 0 00.36-.14.487.487 0 00.14-.36v-1.25a.487.487 0 00-.14-.36.487.487 0 00-.36-.14h-11a.487.487 0 00-.36.14.487.487 0 00-.14.36v1.25c0 .146.047.266.14.36.094.093.214.14.36.14h11z"/>
</svg>
