<svg width="24" height="24" viewBox="0 0 24 24" xmlns="http://www.w3.org/2000/svg">
    <path d="M12.25 18.688c2.318 0 4.453-.573 6.406-1.72a12.503 12.503 0 004.57-4.53c.183-.287.274-.6.274-.938 0-.339-.091-.651-.273-.937a12.503 12.503 0 00-4.57-4.532c-1.954-1.146-4.09-1.718-6.407-1.718-2.318 0-4.453.572-6.406 1.718a12.503 12.503 0 00-4.57 4.532A1.712 1.712 0 001 11.5c0 .339.091.651.273.938a12.503 12.503 0 004.57 4.53c1.954 1.147 4.09 1.72 6.407 1.72zm0-1.875c-1.98 0-3.796-.482-5.45-1.446A10.854 10.854 0 012.876 11.5 10.775 10.775 0 016.43 7.867a10.789 10.789 0 014.882-1.64c.417.416.625.924.625 1.523 0 .599-.214 1.113-.644 1.543-.43.43-.944.645-1.543.645a2.105 2.105 0 01-1.543-.645 2.105 2.105 0 01-.645-1.543 5.234 5.234 0 00-.625 2.5c0 .964.241 1.849.723 2.656a5.5 5.5 0 001.934 1.934 5.088 5.088 0 002.656.723c.964 0 1.849-.241 2.656-.723a5.5 5.5 0 001.934-1.934 5.088 5.088 0 00.722-2.656 5.24 5.24 0 00-1.093-3.242 10.967 10.967 0 012.949 1.855 11.27 11.27 0 012.207 2.637 10.854 10.854 0 01-3.926 3.867c-1.653.964-3.47 1.446-5.449 1.446z"/>
</svg>
