<svg width="24" height="19" viewBox="0 0 24 19" xmlns="http://www.w3.org/2000/svg" alignment-baseline="middle">
    <path d="M8.438 18.25c.156 0 .289-.055.398-.164A.542.542 0 009 17.688v-1.125a.542.542 0 00-.164-.399.542.542 0 00-.399-.164H4.5a2.17 2.17 0 01-1.594-.656 2.17 2.17 0 01-.656-1.594v-9c0-.625.219-1.156.656-1.594A2.17 2.17 0 014.5 2.5h3.938c.156 0 .289-.055.398-.164A.542.542 0 009 1.938V.813a.542.542 0 00-.164-.399.542.542 0 00-.399-.164H4.5c-1.25 0-2.313.438-3.188 1.313S0 3.5 0 4.75v9c0 1.25.438 2.313 1.313 3.188S3.25 18.25 4.5 18.25h3.938zm7.312-.75a.445.445 0 00.375-.187l7.734-7.688A.507.507 0 0024 9.25a.686.686 0 00-.14-.422l-7.735-7.687A.507.507 0 0015.75 1a.583.583 0 00-.422.188V1.14l-.89.937a.583.583 0 00-.188.422c0 .156.063.281.188.375l5.296 5.156H8.062a.542.542 0 00-.398.164.542.542 0 00-.164.399v1.312c0 .157.055.29.164.399.11.11.242.164.399.164h11.671l-5.297 5.156a.445.445 0 00-.187.375c0 .156.063.297.188.422l.89.89a.583.583 0 00.422.188z"/>
</svg>
