<svg width="24" height="24" viewBox="0 0 24 24" xmlns="http://www.w3.org/2000/svg">
    <path d="M2.976 22l.131-.014 5.816-.976L21.22 8.636c.52-.52.781-1.145.781-1.874 0-.728-.26-1.353-.78-1.873L19.11 2.78A2.555 2.555 0 0017.238 2c-.729 0-1.353.26-1.874.78L2.99 15.078l-.976 5.816a.895.895 0 00.273.82.895.895 0 00.82.273l-.131.013zm15.16-12.7L14.7 5.864l1.874-1.873a.903.903 0 01.664-.273c.26 0 .481.09.663.273l2.07 2.108a.85.85 0 01.311.663c0 .26-.09.482-.273.664L18.136 9.3zm-7.925 7.963v-1.6H8.338v-1.874h-1.6l6.635-6.597 3.435 3.435-6.597 6.636zm-4.996 2.615l-1.093-1.093.468-2.889.703-.702h1.64v1.873h1.873v1.64l-.702.703-2.889.468z"/>
</svg>
