<svg width="24" height="24" viewBox="0 0 24 24" xmlns="http://www.w3.org/2000/svg">
    <path d="M20.766 23c.286 0 .53-.1.73-.3l1.203-1.204c.2-.2.301-.444.301-.73 0-.287-.1-.53-.3-.73l-4.298-4.298c-.2-.2-.444-.3-.73-.3h-.688c1.26-1.605 1.891-3.438 1.891-5.5 0-1.633-.401-3.13-1.203-4.49a9.03 9.03 0 00-3.244-3.245C13.068 1.401 11.57 1 9.938 1c-1.633 0-3.13.401-4.49 1.203a9.03 9.03 0 00-3.245 3.244C1.401 6.807 1 8.305 1 9.937c0 1.633.401 3.13 1.203 4.49a9.03 9.03 0 003.244 3.245c1.36.802 2.858 1.203 4.49 1.203 2.063 0 3.896-.63 5.5-1.89v.687c0 .286.1.53.301.73l4.297 4.297c.2.2.444.301.73.301zM9.938 15.437a5.454 5.454 0 01-2.772-.73 5.35 5.35 0 01-1.998-1.998 5.454 5.454 0 01-.73-2.771c0-1.003.243-1.927.73-2.772a5.35 5.35 0 011.998-1.998 5.454 5.454 0 012.771-.73c1.003 0 1.927.243 2.772.73a5.35 5.35 0 011.998 1.998c.487.845.73 1.769.73 2.771a5.454 5.454 0 01-.73 2.772 5.35 5.35 0 01-1.998 1.998 5.454 5.454 0 01-2.771.73z"/>
</svg>
