<svg width="24" height="24" viewBox="0 0 24 24" xmlns="http://www.w3.org/2000/svg">
    <path d="M18.578 21.422l.82-.586a.493.493 0 00.196-.293.39.39 0 00-.078-.332l-1.875-2.695a12.773 12.773 0 003.183-2.11c.95-.86 1.751-1.849 2.403-2.968.182-.287.273-.6.273-.938 0-.339-.091-.651-.273-.937a12.503 12.503 0 00-4.57-4.532c-1.954-1.146-4.09-1.718-6.407-1.718-1.198 0-2.37.156-3.516.468L6.547 1.695a.365.365 0 00-.274-.195.423.423 0 00-.351.078l-.82.586a.493.493 0 00-.196.293.39.39 0 00.078.332l12.97 18.516c.051.104.142.169.273.195.13.026.247 0 .351-.078zm-2.031-5.469l-1.055-1.484c1.042-.808 1.693-1.85 1.953-3.125.26-1.276.091-2.474-.508-3.594 0 .599-.214 1.113-.644 1.543-.43.43-.944.645-1.543.645a2.105 2.105 0 01-1.543-.645 2.105 2.105 0 01-.645-1.543c0-.599.209-1.107.625-1.523 1.771.156 3.399.703 4.883 1.64a10.775 10.775 0 013.555 3.633 10.199 10.199 0 01-2.168 2.617 11.455 11.455 0 01-2.91 1.836zm-4.297 2.735c.52 0 1.042-.027 1.562-.079l-1.25-1.796h-.312c-1.98 0-3.796-.482-5.45-1.446A10.854 10.854 0 012.876 11.5a10.796 10.796 0 013.437-3.594L5.258 6.383a12.473 12.473 0 00-3.985 4.18A1.712 1.712 0 001 11.5c0 .339.091.651.273.938a12.503 12.503 0 004.57 4.53c1.954 1.147 4.09 1.72 6.407 1.72zm-.586-3.165L7.094 9a5.012 5.012 0 00.117 2.969c.338.963.905 1.77 1.7 2.422a5.04 5.04 0 002.753 1.132z"/>
</svg>
