<svg width="24" height="24" viewBox="0 0 24 24" xmlns="http://www.w3.org/2000/svg">
    <path d="M12 2c1.801 0 3.468.45 5 1.35 1.532.901 2.749 2.118 3.65 3.65A9.694 9.694 0 0122 12c0 1.801-.45 3.468-1.35 5A10.105 10.105 0 0117 20.65 9.694 9.694 0 0112 22a9.694 9.694 0 01-5-1.35A10.105 10.105 0 013.35 17 9.694 9.694 0 012 12c0-1.801.45-3.468 1.35-5A10.105 10.105 0 017 3.35 9.694 9.694 0 0112 2zm0 1.935a7.826 7.826 0 00-4.032 1.09 8.132 8.132 0 00-2.944 2.943A7.826 7.826 0 003.935 12c0 1.452.363 2.796 1.09 4.032a8.132 8.132 0 002.943 2.944A7.826 7.826 0 0012 20.065a7.826 7.826 0 004.032-1.09 8.132 8.132 0 002.944-2.943A7.826 7.826 0 0020.065 12a7.826 7.826 0 00-1.09-4.032 8.132 8.132 0 00-2.943-2.944A7.826 7.826 0 0012 3.935zm0 4.194c.134 0 .255.054.363.161l4.92 4.92a.501.501 0 01.16.363.383.383 0 01-.16.322l-.888.928a.59.59 0 01-.363.12.436.436 0 01-.322-.12L12 11.113l-3.71 3.71a.436.436 0 01-.322.12.59.59 0 01-.363-.12l-.887-.928a.383.383 0 01-.162-.322c0-.135.054-.256.162-.363l4.96-4.92A.383.383 0 0112 8.13z"/>
</svg>
