<svg width="24" height="25" viewBox="0 0 24 24" xmlns="http://www.w3.org/2000/svg">
    <path d="M9.041 23.964c2.06.547 4.12.547 6.181 0a1.11 1.11 0 00.628-.41c.161-.21.242-.46.242-.75v-1.738a11.316 11.316 0 001.593-.917l1.497.869c.258.129.515.177.773.145a.939.939 0 00.627-.338 12.087 12.087 0 003.14-5.36c.064-.226.04-.467-.073-.725a1.197 1.197 0 00-.507-.58l-1.497-.868c.032-.612.032-1.224 0-1.835l1.497-.87c.225-.128.394-.322.507-.58.113-.257.137-.498.072-.723a12.087 12.087 0 00-3.139-5.36.939.939 0 00-.627-.339 1.33 1.33 0 00-.773.145l-1.497.87a11.316 11.316 0 00-1.593-.918V1.943c0-.29-.081-.539-.242-.748a1.11 1.11 0 00-.628-.41 11.84 11.84 0 00-6.18 0 1.11 1.11 0 00-.629.41c-.16.21-.241.459-.241.748v1.739c-.547.257-1.078.563-1.594.917L5.081 3.73a1.33 1.33 0 00-.772-.145.939.939 0 00-.628.338 12.087 12.087 0 00-3.139 5.36c-.064.226-.04.467.073.725.112.257.281.45.507.58l1.497.869a17.444 17.444 0 000 1.835l-1.497.869a1.197 1.197 0 00-.507.58c-.113.257-.137.498-.073.724a12.087 12.087 0 003.14 5.36c.16.193.37.306.627.338a1.33 1.33 0 00.772-.145l1.497-.87c.516.355 1.047.66 1.594.918v1.739c0 .29.08.539.241.748.161.21.37.346.628.41zm4.733-2.077a9.376 9.376 0 01-3.284 0v-2.414c-.934-.354-1.586-.636-1.956-.845-.37-.21-.941-.636-1.714-1.28l-2.125 1.207a10.099 10.099 0 01-1.642-2.849L5.178 14.5c-.193-.998-.29-1.706-.29-2.125 0-.418.097-1.127.29-2.125L3.053 9.042c.387-1.03.934-1.98 1.642-2.849L6.82 7.4c.773-.644 1.344-1.07 1.714-1.28.37-.209 1.022-.49 1.956-.845V2.861a9.376 9.376 0 013.284 0v2.414c.933.355 1.585.636 1.955.846.37.209.942.635 1.715 1.28l2.124-1.208c.709.87 1.256 1.819 1.642 2.85l-2.125 1.206c.194.998.29 1.707.29 2.125 0 .419-.096 1.127-.29 2.125l2.125 1.207a10.099 10.099 0 01-1.642 2.85l-2.124-1.208c-.773.644-1.344 1.07-1.715 1.28-.37.209-1.022.49-1.955.845v2.414zm-1.642-4.877c1.287 0 2.382-.45 3.283-1.352.902-.902 1.353-1.996 1.353-3.284 0-1.288-.451-2.382-1.353-3.284-.9-.901-1.996-1.352-3.283-1.352-1.288 0-2.383.45-3.284 1.352-.901.902-1.352 1.996-1.352 3.284 0 1.288.45 2.382 1.352 3.284.901.901 1.996 1.352 3.284 1.352zm0-2.318a2.235 2.235 0 01-1.642-.676 2.235 2.235 0 01-.676-1.642c0-.644.225-1.191.676-1.642.45-.45.998-.676 1.642-.676.644 0 1.19.226 1.642.676.45.45.676.998.676 1.642 0 .644-.226 1.191-.676 1.642-.451.45-.998.676-1.642.676z"/>
</svg>
