<svg width="24" height="24" viewBox="0 0 24 24" xmlns="http://www.w3.org/2000/svg">
    <path d="M12 22c1.801 0 3.468-.45 5-1.35A10.105 10.105 0 0020.65 17 9.694 9.694 0 0022 12c0-1.801-.45-3.468-1.35-5A10.105 10.105 0 0017 3.35 9.694 9.694 0 0012 2c-1.801 0-3.468.45-5 1.35A10.105 10.105 0 003.35 7 9.694 9.694 0 002 12c0 1.801.45 3.468 1.35 5A10.105 10.105 0 007 20.65 9.694 9.694 0 0012 22zm0-1.935a7.826 7.826 0 01-4.032-1.09 8.132 8.132 0 01-2.944-2.943A7.826 7.826 0 013.935 12c0-1.452.363-2.796 1.09-4.032a8.132 8.132 0 012.943-2.944A7.826 7.826 0 0112 3.935c1.452 0 2.796.363 4.032 1.09a8.132 8.132 0 012.944 2.943A7.826 7.826 0 0120.065 12a7.826 7.826 0 01-1.09 4.032 8.132 8.132 0 01-2.943 2.944A7.826 7.826 0 0112 20.065zm.08-2.702a.59.59 0 00.364-.121l4.879-4.88a.501.501 0 00.16-.362.501.501 0 00-.16-.363l-4.88-4.879a.59.59 0 00-.362-.12.436.436 0 00-.323.12l-.806.807a.436.436 0 00-.121.322c0 .135.053.255.16.363l2.824 2.702H7.323a.467.467 0 00-.343.14.467.467 0 00-.141.343v1.13c0 .134.047.248.14.342a.467.467 0 00.344.141h6.492l-2.863 2.702a.59.59 0 00-.121.363c0 .134.04.242.12.322l.807.807c.08.08.188.12.323.12z"/>
</svg>
