<svg width="24" height="24" viewBox="0 0 24 24" xmlns="http://www.w3.org/2000/svg">
    <path d="M11.865 23.27c2.006 0 3.862-.502 5.568-1.505a11.251 11.251 0 004.063-4.063A10.794 10.794 0 0023 12.135c0-2.036-.501-3.899-1.504-5.59a11.307 11.307 0 00-4.063-4.04A10.794 10.794 0 0011.865 1c-1.526 0-2.97.292-4.332.876a11.276 11.276 0 00-3.57 2.402l-2.02-1.976c-.18-.18-.382-.224-.606-.135A.492.492 0 001 2.661v5.702c0 .15.052.277.157.382a.52.52 0 00.382.157H7.33c.24 0 .404-.112.493-.337.09-.224.045-.426-.134-.606l-2.2-2.155a9.073 9.073 0 012.896-1.953 8.81 8.81 0 013.48-.696c1.616 0 3.112.404 4.49 1.212a9.055 9.055 0 013.277 3.278 8.713 8.713 0 011.212 4.49 8.713 8.713 0 01-1.212 4.49 9.055 9.055 0 01-3.278 3.277 8.713 8.713 0 01-4.49 1.212 8.679 8.679 0 01-3.232-.606 9.198 9.198 0 01-2.74-1.684.625.625 0 00-.38-.134.536.536 0 00-.382.18l-.764.763c-.09.09-.134.217-.134.381 0 .165.06.292.18.382a11.077 11.077 0 003.411 2.11c1.288.509 2.635.763 4.041.763zm3.168-6.891l.11-.001a.492.492 0 00.359-.202l.629-.898c.09-.12.12-.255.09-.405a.42.42 0 00-.225-.314l-3.053-2.245V5.85a.52.52 0 00-.157-.382.52.52 0 00-.382-.157h-1.077a.52.52 0 00-.382.157.52.52 0 00-.157.382v7.543l3.95 2.873c.12.09.255.128.405.113l-.11.001z"/>
</svg>
